<svg width="28" height="28" viewBox="0 0 28 28" fill="none" xmlns="http://www.w3.org/2000/svg">
<path d="M19.3733 11.1733H16.0333V10.344H19.3746V11.1747L19.3733 11.1733ZM13.8093 14.5773C14.0253 14.9107 14.132 15.316 14.132 15.792C14.132 16.2853 14.012 16.7253 13.764 17.116C13.5988 17.3904 13.3779 17.6272 13.1157 17.8112C12.8535 17.9951 12.5556 18.1221 12.2413 18.184C11.8555 18.2612 11.4628 18.2987 11.0693 18.296H7.33331V10H11.34C12.3493 10.016 13.0653 10.3093 13.488 10.884C13.7413 11.236 13.868 11.6587 13.868 12.1507C13.868 12.6573 13.7413 13.064 13.484 13.372C13.3426 13.5453 13.132 13.7027 12.8533 13.844C13.2746 13.9987 13.5946 14.2413 13.8093 14.5773ZM9.24665 13.2707H11.0026C11.3626 13.2707 11.6546 13.2027 11.8786 13.0653C12.104 12.928 12.216 12.6853 12.216 12.336C12.216 11.9493 12.068 11.6933 11.7706 11.5707C11.453 11.4755 11.1222 11.4314 10.7906 11.44H9.24665V13.2707V13.2707ZM12.3853 15.6733C12.3853 15.2427 12.208 14.9453 11.8573 14.7853C11.66 14.6947 11.3826 14.648 11.028 14.644H9.24665V16.8547H11C11.36 16.8547 11.64 16.808 11.84 16.7093C12.2026 16.5293 12.3853 16.1853 12.3853 15.6733V15.6733ZM20.6133 14.324C20.6533 14.596 20.672 14.9893 20.6653 15.504H16.3386C16.3626 16.1013 16.568 16.5187 16.96 16.7573C17.1946 16.908 17.48 16.9813 17.816 16.9813C18.1693 16.9813 18.456 16.892 18.6786 16.708C18.8112 16.5948 18.9196 16.456 18.9973 16.3H20.584C20.5413 16.6533 20.3506 17.0107 20.008 17.3747C19.4746 17.952 18.7306 18.2413 17.772 18.2413C17.01 18.2512 16.269 17.9925 15.6786 17.5107C15.076 17.0227 14.772 16.2307 14.772 15.1307C14.772 14.1 15.0453 13.3107 15.5906 12.7613C16.1373 12.2107 16.8453 11.9373 17.7173 11.9373C18.2333 11.9373 18.6986 12.0293 19.1146 12.2147C19.528 12.4013 19.8706 12.6933 20.14 13.0947C20.384 13.4493 20.54 13.8573 20.6133 14.324V14.324ZM19.0533 14.4787C19.024 14.0653 18.8853 13.7533 18.6373 13.54C18.3813 13.322 18.0534 13.207 17.7173 13.2173C17.3173 13.2173 17.0093 13.3333 16.7893 13.5587C16.5693 13.7853 16.432 14.092 16.376 14.4787H19.0533V14.4787Z" fill="#556182"/>
<path d="M5.99999 3.33329C5.29275 3.33329 4.61447 3.61424 4.11437 4.11434C3.61427 4.61444 3.33332 5.29272 3.33332 5.99996V22C3.33332 22.7072 3.61427 23.3855 4.11437 23.8856C4.61447 24.3857 5.29275 24.6666 5.99999 24.6666H22C22.7072 24.6666 23.3855 24.3857 23.8856 23.8856C24.3857 23.3855 24.6667 22.7072 24.6667 22V5.99996C24.6667 5.29272 24.3857 4.61444 23.8856 4.11434C23.3855 3.61424 22.7072 3.33329 22 3.33329H5.99999ZM5.99999 0.666626H22C23.4145 0.666626 24.771 1.22853 25.7712 2.22872C26.7714 3.22892 27.3333 4.58547 27.3333 5.99996V22C27.3333 23.4145 26.7714 24.771 25.7712 25.7712C24.771 26.7714 23.4145 27.3333 22 27.3333H5.99999C4.5855 27.3333 3.22895 26.7714 2.22875 25.7712C1.22856 24.771 0.666656 23.4145 0.666656 22V5.99996C0.666656 4.58547 1.22856 3.22892 2.22875 2.22872C3.22895 1.22853 4.5855 0.666626 5.99999 0.666626V0.666626Z" fill="#556182"/>
</svg>
