<svg width="28" height="27" viewBox="0 0 28 27" fill="none" xmlns="http://www.w3.org/2000/svg">
<path fill-rule="evenodd" clip-rule="evenodd" d="M14.0347 0.666626C6.68933 0.666626 0.735992 6.61996 0.735992 13.9653C0.735992 19.84 4.54533 24.8253 9.83066 26.5853C10.496 26.7053 10.736 26.296 10.736 25.944C10.736 25.628 10.7253 24.7906 10.7213 23.6826C7.02133 24.4853 6.23999 21.8986 6.23999 21.8986C5.63733 20.3626 4.76399 19.9533 4.76399 19.9533C3.55733 19.128 4.85599 19.1466 4.85599 19.1466C6.19199 19.24 6.89199 20.5173 6.89199 20.5173C8.07866 22.5493 10.0067 21.9626 10.7613 21.6226C10.8827 20.7626 11.2293 20.176 11.608 19.844C8.65599 19.5093 5.55199 18.368 5.55199 13.2706C5.55199 11.8213 6.07066 10.632 6.91733 9.70396C6.78266 9.36663 6.32266 8.01329 7.04933 6.18396C7.04933 6.18396 8.16533 5.82529 10.7053 7.54529C11.7901 7.25019 12.9091 7.09955 14.0333 7.09729C15.1576 7.09912 16.2766 7.24976 17.3613 7.54529C19.9027 5.82396 21.0173 6.18396 21.0173 6.18396C21.744 8.01329 21.288 9.36663 21.1493 9.70396C22.0027 10.632 22.5147 11.82 22.5147 13.2706C22.5147 18.3813 19.408 19.504 16.4453 19.8333C16.9187 20.244 17.3453 21.0546 17.3453 22.2946C17.3453 24.0733 17.3293 25.508 17.3293 25.944C17.3293 26.3 17.5667 26.7133 18.2453 26.5826C23.528 24.82 27.3333 19.8386 27.3333 13.9653C27.3333 6.61996 21.38 0.666626 14.0347 0.666626Z" fill="#556182"/>
</svg>
