<svg width="30" height="30" viewBox="0 0 30 30" fill="none" xmlns="http://www.w3.org/2000/svg">
<path d="M28.3333 15C28.3333 18.6924 26.8324 22.0342 24.4074 24.4487C21.9962 26.8495 18.6714 28.3334 15 28.3334C7.63616 28.3334 1.66663 22.3638 1.66663 15C1.66663 11.441 3.06102 8.20775 5.33329 5.81669C7.76256 3.26039 11.1952 1.66669 15 1.66669C18.6714 1.66669 21.9962 3.15057 24.4074 5.55132C26.8324 7.96582 28.3333 11.3076 28.3333 15Z" stroke="#556182" stroke-width="2.5" stroke-linecap="round" stroke-linejoin="round"/>
<path d="M28.3335 15C26.3879 15 21.0209 14.2662 16.2178 16.3755C11.0001 18.6668 7.22172 22.221 5.57544 24.4315" stroke="#556182" stroke-width="2.5" stroke-linecap="round" stroke-linejoin="round"/>
<path d="M10 2.63593C12.0869 4.56185 16.6402 9.46575 18.3333 14.3334C20.0265 19.2011 20.6539 25.1862 21.0404 26.8899" stroke="#556182" stroke-width="2.5" stroke-linecap="round" stroke-linejoin="round"/>
<path d="M1.76953 13.3333C4.28804 13.4851 10.9553 13.6221 15.2219 11.7999C19.4886 9.97774 23.1601 6.6264 24.4194 5.56348" stroke="#556182" stroke-width="2.5" stroke-linecap="round" stroke-linejoin="round"/>
<path d="M2.66663 20.0755C3.84107 22.9263 5.97516 25.2806 8.66663 26.7361" stroke="#556182" stroke-width="2.5" stroke-linecap="round" stroke-linejoin="round"/>
<path d="M1.66663 15C1.66663 11.4411 3.06102 8.20778 5.33329 5.81671" stroke="#556182" stroke-width="2.5" stroke-linecap="round" stroke-linejoin="round"/>
<path d="M14.9999 1.66669C11.1951 1.66669 7.76252 3.26039 5.33325 5.81669" stroke="#556182" stroke-width="2.5" stroke-linecap="round" stroke-linejoin="round"/>
<path d="M20.3333 2.77612C21.8621 3.44412 23.2415 4.39055 24.4074 5.55131C26.8323 7.9658 28.3333 11.3076 28.3333 15C28.3333 16.6418 28.0365 18.2142 27.4938 19.6667" stroke="#556182" stroke-width="2.5" stroke-linecap="round" stroke-linejoin="round"/>
<path d="M15 28.3333C18.6714 28.3333 21.9962 26.8495 24.4075 24.4487" stroke="#556182" stroke-width="2.5" stroke-linecap="round" stroke-linejoin="round"/>
</svg>
