<svg width="30" height="30" viewBox="0 0 30 30" fill="none" xmlns="http://www.w3.org/2000/svg">
<path d="M28.3333 15C28.3333 18.6924 26.8324 22.0342 24.4075 24.4486C21.9962 26.8494 18.6714 28.3333 15 28.3333C7.63619 28.3333 1.66666 22.3638 1.66666 15C1.66666 11.441 3.06105 8.20769 5.33332 5.81663C7.76259 3.26033 11.1952 1.66663 15 1.66663C18.6714 1.66663 21.9962 3.15051 24.4075 5.55126C26.8324 7.96576 28.3333 11.3076 28.3333 15Z" fill="white" stroke="#556182" stroke-width="2.5" stroke-linecap="round" stroke-linejoin="round"/>
<path d="M28.3335 15C26.3879 15 21.021 14.2662 16.2178 16.3755C11.0002 18.6668 7.22178 22.221 5.5755 24.4315" stroke="#556182" stroke-width="2.5" stroke-linecap="round" stroke-linejoin="round"/>
<path d="M10 2.63586C12.0869 4.56179 16.6402 9.46569 18.3333 14.3334C20.0265 19.201 20.6539 25.1861 21.0404 26.8898" stroke="#556182" stroke-width="2.5" stroke-linecap="round" stroke-linejoin="round"/>
<path d="M1.76953 13.3333C4.28804 13.4851 10.9553 13.6221 15.2219 11.7999C19.4886 9.97774 23.1601 6.6264 24.4194 5.56348" stroke="#556182" stroke-width="2.5" stroke-linecap="round" stroke-linejoin="round"/>
<path d="M2.66666 20.0754C3.8411 22.9262 5.97519 25.2806 8.66666 26.736" stroke="#556182" stroke-width="2.5" stroke-linecap="round" stroke-linejoin="round"/>
<path d="M1.66666 15C1.66666 11.4411 3.06105 8.20772 5.33332 5.81665" stroke="#556182" stroke-width="2.5" stroke-linecap="round" stroke-linejoin="round"/>
<path d="M15 1.66663C11.1952 1.66663 7.76258 3.26033 5.33331 5.81663" stroke="#556182" stroke-width="2.5" stroke-linecap="round" stroke-linejoin="round"/>
<path d="M20.3333 2.77612C21.8622 3.44412 23.2416 4.39055 24.4074 5.55131C26.8324 7.9658 28.3333 11.3076 28.3333 15C28.3333 16.6418 28.0366 18.2142 27.4938 19.6667" stroke="#556182" stroke-width="2.5" stroke-linecap="round" stroke-linejoin="round"/>
<path d="M15 28.3333C18.6714 28.3333 21.9962 26.8495 24.4075 24.4487" stroke="#556182" stroke-width="2.5" stroke-linecap="round" stroke-linejoin="round"/>
</svg>
