<svg width="28" height="28" viewBox="0 0 28 28" fill="none" xmlns="http://www.w3.org/2000/svg">
<path d="M20.6666 15.5066V20.4359H17.8093V15.8359C17.8093 14.6812 17.396 13.8932 16.3613 13.8932C15.572 13.8932 15.1013 14.4239 14.8946 14.9386C14.82 15.1226 14.8 15.3786 14.8 15.6346V20.4359H11.9413C11.9413 20.4359 11.98 12.6466 11.9413 11.8399H14.8V13.0572L14.7813 13.0852H14.8V13.0586C15.18 12.4719 15.8573 11.6372 17.376 11.6372C19.256 11.6372 20.6666 12.8666 20.6666 15.5066V15.5066ZM8.95065 7.69458C7.97331 7.69458 7.33331 8.33725 7.33331 9.17991C7.33331 10.0066 7.95465 10.6666 8.91331 10.6666H8.93198C9.92931 10.6666 10.5493 10.0052 10.5493 9.17991C10.5306 8.33725 9.92931 7.69458 8.95065 7.69458V7.69458ZM7.50265 20.4359H10.3613V11.8399H7.50265V20.4359V20.4359Z" fill="#556182"/>
<path d="M5.99999 3.33329C5.29275 3.33329 4.61447 3.61424 4.11437 4.11434C3.61427 4.61444 3.33332 5.29272 3.33332 5.99996V22C3.33332 22.7072 3.61427 23.3855 4.11437 23.8856C4.61447 24.3857 5.29275 24.6666 5.99999 24.6666H22C22.7072 24.6666 23.3855 24.3857 23.8856 23.8856C24.3857 23.3855 24.6667 22.7072 24.6667 22V5.99996C24.6667 5.29272 24.3857 4.61444 23.8856 4.11434C23.3855 3.61424 22.7072 3.33329 22 3.33329H5.99999ZM5.99999 0.666626H22C23.4145 0.666626 24.771 1.22853 25.7712 2.22872C26.7714 3.22892 27.3333 4.58547 27.3333 5.99996V22C27.3333 23.4145 26.7714 24.771 25.7712 25.7712C24.771 26.7714 23.4145 27.3333 22 27.3333H5.99999C4.5855 27.3333 3.22895 26.7714 2.22875 25.7712C1.22856 24.771 0.666656 23.4145 0.666656 22V5.99996C0.666656 4.58547 1.22856 3.22892 2.22875 2.22872C3.22895 1.22853 4.5855 0.666626 5.99999 0.666626V0.666626Z" fill="#556182"/>
</svg>
