<svg width="30" height="24" viewBox="0 0 30 24" fill="none" xmlns="http://www.w3.org/2000/svg">
<path d="M5.58753 0.666626H24.9757C26.1679 0.666548 27.3149 1.12268 28.1815 1.94146C29.0481 2.76024 29.5685 3.87959 29.636 5.06989L29.6432 5.33415V18.9777C29.6433 20.1699 29.1872 21.3169 28.3684 22.1835C27.5496 23.0501 26.4302 23.5705 25.2399 23.638L24.9757 23.6452H5.58753C4.39532 23.6453 3.24827 23.1891 2.38169 22.3703C1.51511 21.5516 0.994692 20.4322 0.927194 19.2419L0.920013 18.9777V5.33415C0.919935 4.14194 1.37607 2.99489 2.19485 2.12831C3.01363 1.26172 4.13298 0.741304 5.32328 0.673807L5.58753 0.666626H24.9757H5.58753ZM27.489 8.38311L15.7843 14.5442C15.6521 14.6141 15.5069 14.6556 15.3578 14.6662C15.2087 14.6769 15.059 14.6564 14.9183 14.606L14.7804 14.5457L3.07425 8.38455V18.9777C3.07428 19.6084 3.31147 20.2161 3.73874 20.6801C4.16601 21.1441 4.75212 21.4304 5.38073 21.4823L5.58753 21.4909H24.9757C25.6067 21.4909 26.2145 21.2535 26.6786 20.8259C27.1426 20.3984 27.4288 19.8119 27.4804 19.183L27.489 18.9777V8.38311ZM24.9757 2.82087H5.58753C4.95679 2.82089 4.34911 3.05808 3.88512 3.48535C3.42114 3.91262 3.13477 4.49873 3.08287 5.12734L3.07425 5.33415V5.95026L15.2816 12.3742L27.489 5.94882V5.33415C27.4889 4.70317 27.2515 4.0953 26.824 3.63128C26.3964 3.16726 25.8099 2.88104 25.1811 2.82948L24.9757 2.82087Z" fill="#556182"/>
</svg>
